<svg width="17" height="9" viewBox="0 0 17 9" fill="none" xmlns="http://www.w3.org/2000/svg">
<path d="M9.41167 8.54434L16.1752 2.04936C16.2874 1.94268 16.3765 1.81576 16.4372 1.67593C16.498 1.53609 16.5293 1.3861 16.5293 1.23462C16.5293 1.08313 16.498 0.93314 16.4372 0.793304C16.3765 0.653468 16.2874 0.52655 16.1752 0.419873C15.9509 0.206146 15.6475 0.0861816 15.3313 0.0861816C15.015 0.0861816 14.7116 0.206146 14.4873 0.419873L8.50188 6.10012L2.57631 0.419873C2.35202 0.206146 2.04862 0.0861816 1.73237 0.0861816C1.41611 0.0861816 1.11271 0.206146 0.888421 0.419873C0.775311 0.526151 0.685325 0.652889 0.623679 0.792744C0.562034 0.932598 0.529954 1.08279 0.529296 1.23462C0.529954 1.38644 0.562034 1.53663 0.623679 1.67649C0.685325 1.81634 0.775311 1.94308 0.888421 2.04936L7.65195 8.54434C7.76405 8.66082 7.9001 8.75378 8.05153 8.81736C8.20296 8.88094 8.36649 8.91377 8.53181 8.91377C8.69713 8.91377 8.86066 8.88094 9.01209 8.81736C9.16352 8.75378 9.29957 8.66082 9.41167 8.54434Z" fill="#878787"/>
</svg>
