<svg width="19" height="22" viewBox="0 0 19 22" fill="none" xmlns="http://www.w3.org/2000/svg">
<path d="M10.4534 5.52423C11.1534 5.28423 11.6734 4.62423 11.7534 3.88423C11.8034 3.41423 11.7034 2.97423 11.4734 2.61423L10.1934 0.394229C10.0034 0.0642285 9.52344 0.0642285 9.32344 0.394229L8.04344 2.61423C7.87344 2.91423 7.77344 3.26423 7.77344 3.64423C7.77344 4.96423 9.07344 5.99423 10.4534 5.52423ZM14.3034 15.5642L13.3034 14.5642L12.2234 15.6342C10.9234 16.9342 8.64344 16.9442 7.33344 15.6342L6.26344 14.5642L5.17344 15.6342C4.52344 16.2842 3.65344 16.6442 2.73344 16.6442C2.00344 16.6442 1.33344 16.4142 0.773438 16.0342V19.6442C0.773438 20.7442 1.67344 21.6442 2.77344 21.6442H16.7734C17.8734 21.6442 18.7734 20.7442 18.7734 19.6442V16.0342C18.0234 16.5442 17.0634 16.7842 16.0334 16.5542C15.3734 16.4142 14.7834 16.0442 14.3034 15.5642ZM15.7734 8.64423H10.7734V7.64423C10.7734 7.09423 10.3234 6.64423 9.77344 6.64423C9.22344 6.64423 8.77344 7.09423 8.77344 7.64423V8.64423H3.77344C2.11344 8.64423 0.773438 9.98423 0.773438 11.6442V13.1042C0.773438 13.9542 1.27344 14.7742 2.08344 15.0442C2.81344 15.2842 3.60344 15.1042 4.11344 14.5842L6.25344 12.4542L8.38344 14.5842C9.14344 15.3442 10.3934 15.3442 11.1534 14.5842L13.2934 12.4542L15.4234 14.5842C15.8534 15.0142 16.4534 15.2142 17.0734 15.1342C18.0634 15.0042 18.7634 14.0742 18.7634 13.0742V11.6542C18.7734 9.98423 17.4334 8.64423 15.7734 8.64423Z" fill="#545454"/>
</svg>
