<svg width="60" height="63" viewBox="0 0 60 63" fill="none" xmlns="http://www.w3.org/2000/svg">
<rect x="0.585938" y="0.24231" width="59.1844" height="61.7724" rx="9.72408" fill="#C8D7FF"/>
<path d="M41.8618 28.6976V33.8363C41.1846 31.8048 38.7783 32.3947 37.6198 32.9599C37.5925 32.9732 37.5691 32.9901 37.5476 33.0116L34.1534 36.4057C33.4682 37.0908 33.2969 38.4041 33.2969 38.975V44.6875C33.2969 44.8436 33.4234 44.9702 33.5795 44.9702H39.8662C40.0223 44.9702 40.1484 44.8429 40.1525 44.6869C40.2009 42.8503 40.7131 41.8549 40.9894 41.5608C41.0001 41.5494 41.0099 41.538 41.0189 41.5253L45.2352 35.6229C45.2694 35.575 45.2878 35.5176 45.2878 35.4587V24.698C45.2878 24.5419 45.1605 24.4141 45.0048 24.4259C42.4994 24.6155 41.8618 27.3207 41.8618 28.6976Z" fill="#4069D0"/>
<path d="M20.4429 28.6976V33.8363C21.1201 31.8048 23.5264 32.3947 24.6849 32.9599C24.7122 32.9732 24.7356 32.9901 24.7571 33.0116L28.1513 36.4057C28.8365 37.0908 29.0078 38.4041 29.0078 38.975V44.6875C29.0078 44.8436 28.8813 44.9702 28.7252 44.9702H22.4385C22.2824 44.9702 22.1563 44.8429 22.1522 44.6869C22.1038 42.8503 21.5916 41.8549 21.3152 41.5608C21.3046 41.5494 21.2948 41.538 21.2858 41.5253L17.0695 35.6229C17.0353 35.575 17.0169 35.5176 17.0169 35.4587V24.698C17.0169 24.5419 17.1442 24.4141 17.2999 24.4259C19.8052 24.6155 20.4429 27.3207 20.4429 28.6976Z" fill="#4069D0"/>
<path d="M34.6254 18.5894C33.3629 18.5894 32.1156 19.0636 31.1552 19.8857C30.1946 19.0636 28.9473 18.5894 27.6848 18.5894C24.876 18.5894 22.6758 20.7846 22.6758 23.5869C22.6758 26.9743 25.0397 29.0448 28.6179 32.1789C28.9238 32.4468 29.2394 32.7232 29.5642 33.0098C29.5664 33.0118 29.5687 33.0137 29.5709 33.0157L30.6513 33.9468C30.796 34.0715 30.9757 34.1339 31.1553 34.1339C31.335 34.1339 31.5146 34.0715 31.6594 33.9467L32.7395 33.0156C32.7418 33.0137 32.744 33.0117 32.7463 33.0098C34.8849 31.1227 36.4884 29.6781 37.6484 28.2692C39.0033 26.6237 39.6344 25.1358 39.6344 23.5869C39.6344 20.7846 37.4341 18.5894 34.6254 18.5894Z" fill="#4069D0"/>
</svg>
