<svg width="60" height="63" viewBox="0 0 60 63" fill="none" xmlns="http://www.w3.org/2000/svg">
<rect x="0.818359" y="0.24231" width="59.1844" height="61.7724" rx="9.72408" fill="#FFE7E7"/>
<path d="M27.7136 15.2378C25.7729 15.5363 24.3297 16.2704 23.0794 17.6077C20.7654 20.0835 20.4109 23.7908 22.221 26.6833C23.266 28.3628 25.0264 29.582 27.0729 30.0486C27.7323 30.1979 29.3434 30.1916 30.0463 30.0423C32.8641 29.4327 35.0599 27.3489 35.8126 24.5497C35.9681 23.9837 35.9806 23.8468 35.9806 22.696C35.9806 21.5453 35.9681 21.4084 35.8126 20.8424C35.0662 18.0867 32.9201 16.0091 30.1707 15.3808C29.6544 15.2626 28.1366 15.1756 27.7136 15.2378ZM29.1008 18.1862C29.3372 18.3355 29.4865 18.6403 29.4865 18.9887C29.4865 19.1877 29.5113 19.2375 29.6295 19.2624C29.8597 19.3246 30.2765 19.6667 30.3822 19.8906C30.5128 20.1706 30.5066 20.4131 30.3573 20.6557C30.0898 21.1036 29.6046 21.1969 29.1008 20.8983C28.7213 20.6806 28.3419 20.6868 28.1677 20.9294C28.0682 21.0601 28.062 21.1098 28.1242 21.2529C28.2051 21.4333 28.3792 21.5266 29.0199 21.7319C29.8846 22.0118 30.3387 22.3539 30.6559 22.9449C30.8052 23.2248 30.8238 23.3181 30.8238 23.909C30.8238 24.5062 30.8114 24.5933 30.6372 24.9229C30.4568 25.2899 29.8535 25.9182 29.6109 25.9929C29.5051 26.024 29.4865 26.0862 29.4865 26.3723C29.4865 27.0317 29.1817 27.3924 28.6094 27.3924C28.1304 27.3924 27.8069 27.0379 27.8069 26.4967V26.223L27.5021 26.1484C27.104 26.0551 26.4882 25.6881 26.3576 25.4641C26.2207 25.2402 26.2207 24.8172 26.3514 24.5933C26.6002 24.1827 27.0916 24.1081 27.6701 24.4067C27.9562 24.5497 28.1242 24.5933 28.3979 24.5933C28.7213 24.5933 28.7711 24.5746 28.9639 24.3818C29.1319 24.2138 29.1754 24.1205 29.1754 23.9277C29.1754 23.6042 29.0821 23.5296 28.4165 23.2932C27.6888 23.0382 27.4524 22.9138 27.0667 22.5654C26.5193 22.074 26.3016 21.4333 26.4447 20.749C26.5815 20.071 26.905 19.6232 27.4648 19.3308C27.7883 19.1628 27.8069 19.138 27.8069 18.914C27.8069 18.2236 28.5099 17.8255 29.1008 18.1862Z" fill="#FF7372"/>
<path d="M38.6062 20.3626C38.1894 20.6425 38.233 20.375 37.5674 26.7012C37.2315 29.9047 36.9516 32.567 36.9516 32.6168C36.9516 32.6852 36.8707 32.6914 36.5659 32.6603C36.1803 32.623 27.6832 31.8206 24.996 31.5655C24.2495 31.4971 23.5217 31.4411 23.3724 31.4411C22.6757 31.4411 22.2154 32.2498 22.6011 32.8096C22.9121 33.2761 22.3025 33.189 30.7996 33.9915C35.0544 34.3958 38.5564 34.7068 38.5751 34.6882C38.6435 34.6135 40.012 21.2956 39.9809 21.0033C39.956 20.7918 39.9001 20.6736 39.7321 20.5056C39.5331 20.3128 39.4646 20.2817 39.1474 20.263C38.8675 20.2444 38.7493 20.263 38.6062 20.3626Z" fill="#FF7372"/>
<path d="M22.1188 39.166C21.4097 41.368 20.8063 43.1843 20.7814 43.2155C20.6944 43.3025 18.8967 42.3446 18.3057 41.8967C17.9947 41.6603 17.6401 41.4364 17.5157 41.4053C16.8315 41.2125 16.2032 41.8781 16.4147 42.5747C16.5951 43.1843 18.6043 44.4347 20.5575 45.1562C26.0937 47.209 34.5659 47.6444 40.525 46.1888C42.2543 45.7658 44.0458 45.0443 44.3195 44.671C44.4937 44.4284 44.4937 43.8935 44.3133 43.6571C43.9463 43.1657 43.5419 43.1097 42.7955 43.4643C41.9682 43.8499 39.9652 44.4906 39.7848 44.4222C39.7413 44.4036 39.4738 42.9729 39.0632 40.4971L38.4101 36.6032L38.2235 36.5721C38.0618 36.5472 23.5869 35.1725 23.4624 35.1725C23.4313 35.1725 22.828 36.9702 22.1188 39.166ZM30.7528 38.9607C34.1305 39.2655 36.911 39.533 36.9296 39.5454C36.9732 39.5952 37.9 44.7519 37.8689 44.7892C37.8503 44.8017 37.533 44.8576 37.1598 44.9074C34.0185 45.318 30.1432 45.2557 26.6846 44.7519C25.2912 44.5466 22.7222 43.9806 22.5978 43.8562C22.5791 43.8375 22.6662 43.5265 22.7844 43.1532C22.9088 42.7862 23.3069 41.567 23.6677 40.4411C24.2711 38.5875 24.3395 38.4071 24.4639 38.4071C24.5386 38.4071 27.3689 38.6559 30.7528 38.9607Z" fill="#FF7372"/>
</svg>
