<svg width="25" height="25" viewBox="0 0 25 25" fill="none" xmlns="http://www.w3.org/2000/svg">
<path d="M12.1387 0.929688C5.51467 0.929688 0.138672 6.30569 0.138672 12.9297C0.138672 19.5537 5.51467 24.9297 12.1387 24.9297C18.7627 24.9297 24.1387 19.5537 24.1387 12.9297C24.1387 6.30569 18.7627 0.929688 12.1387 0.929688ZM12.1387 18.9297C11.4787 18.9297 10.9387 18.3897 10.9387 17.7297V12.9297C10.9387 12.2697 11.4787 11.7297 12.1387 11.7297C12.7987 11.7297 13.3387 12.2697 13.3387 12.9297V17.7297C13.3387 18.3897 12.7987 18.9297 12.1387 18.9297ZM13.3387 9.32969H10.9387V6.92969H13.3387V9.32969Z" fill="#A8A8A8"/>
</svg>
