<svg width="20" height="25" viewBox="0 0 20 25" fill="none" xmlns="http://www.w3.org/2000/svg">
<path d="M9.93528 24.9297C11.3557 24.9297 12.5179 23.822 12.5179 22.4681H7.35263C7.35263 23.121 7.62473 23.7471 8.10907 24.2087C8.59341 24.6703 9.25032 24.9297 9.93528 24.9297ZM17.6832 17.5451V11.3912C17.6832 7.61276 15.5655 4.44969 11.8723 3.61276V2.77584C11.8723 1.7543 11.0071 0.929688 9.93528 0.929688C8.86348 0.929688 7.99829 1.7543 7.99829 2.77584V3.61276C4.29219 4.44969 2.18733 7.60046 2.18733 11.3912V17.5451L0.52152 19.1328C-0.292014 19.9082 0.276168 21.2374 1.42545 21.2374H18.4322C19.5815 21.2374 20.1626 19.9082 19.349 19.1328L17.6832 17.5451Z" fill="#A8A8A8"/>
</svg>
